<?xml version="1.0" encoding="utf-8"?>
<!-- Generator: Adobe Illustrator 19.1.0, SVG Export Plug-In . SVG Version: 6.00 Build 0)  -->
<svg version="1.1" id="Layer_1" xmlns="http://www.w3.org/2000/svg" xmlns:xlink="http://www.w3.org/1999/xlink" x="0px" y="0px"
	 viewBox="-278 357 55 80" style="enable-background:new -278 357 55 80;" xml:space="preserve">
<style type="text/css">
	.st0{fill:#FFFFFF;}
</style>
<g transform="matrix(1 0 0 -1 0 80)">
	<path class="st0" d="M-275-357h4c1.7,0,3,1.3,3,3v14c0,1.7-1.3,3-3,3h-4c-1.7,0-3-1.3-3-3v-14C-278-355.7-276.7-357-275-357z	">
<animate  fill="remove" repeatCount="indefinite" calcMode="linear" additive="replace" attributeName="height" accumulate="none" begin="0s" restart="always" dur="4.3s" values="20;45;57;80;64;32;66;45;64;23;66;13;64;56;34;34;2;23;76;79;20">
			</animate>
	</path>
	<path class="st0" d="M-260-357h4c1.7,0,3,1.3,3,3v74c0,1.7-1.3,3-3,3h-4c-1.7,0-3-1.3-3-3v-74C-263-355.7-261.7-357-260-357z	">
<animate  fill="remove" repeatCount="indefinite" calcMode="linear" additive="replace" attributeName="height" accumulate="none" begin="0s" restart="always" dur="2s" values="80;55;33;5;75;23;73;33;12;14;60;80">
			</animate>
	</path>
	<path class="st0" d="M-245-357h4c1.7,0,3,1.3,3,3v44c0,1.7-1.3,3-3,3h-4c-1.7,0-3-1.3-3-3v-44C-248-355.7-246.7-357-245-357z	">
<animate  fill="remove" repeatCount="indefinite" calcMode="linear" additive="replace" attributeName="height" accumulate="none" begin="0s" restart="always" dur="1.4s" values="50;34;78;23;56;23;34;76;80;54;21;50">
			</animate>
	</path>
	<path class="st0" d="M-230-357h4c1.7,0,3,1.3,3,3v24c0,1.7-1.3,3-3,3h-4c-1.7,0-3-1.3-3-3v-24C-233-355.7-231.7-357-230-357z	">
<animate  fill="remove" repeatCount="indefinite" calcMode="linear" additive="replace" attributeName="height" accumulate="none" begin="0s" restart="always" dur="2s" values="30;45;13;80;56;72;45;76;34;23;67;30">
			</animate>
	</path>
</g>
</svg>
